<svg width="191" height="191" viewBox="0 0 191 191" fill="none" xmlns="http://www.w3.org/2000/svg">
<g filter="url(#filter0_d_162_276)">
<path d="M119.451 110.523L107.664 100.523C107.392 100.293 107.047 100.165 106.691 100.163C106.203 100.163 105.739 100.408 105.449 100.819C104.112 102.718 102.458 104.372 100.56 105.71C100.206 105.96 99.972 106.342 99.917 106.759C99.862 107.176 99.984 107.588 100.26 107.92L110.267 119.717C110.595 120.116 111.006 120.437 111.472 120.659C111.939 120.881 112.448 120.997 112.964 121C113.894 121 114.78 120.627 115.458 119.949L119.688 115.719C120.409 114.998 120.781 114.057 120.736 113.069C120.691 112.081 120.234 111.177 119.451 110.523ZM88.729 107.458C93.731 107.458 98.434 105.51 101.972 101.972C103.717 100.237 105.1 98.1731 106.041 95.8999C106.983 93.6268 107.464 91.1895 107.458 88.729C107.458 78.402 99.056 70 88.728 70C78.402 70 70 78.402 70 88.729C70 99.056 78.402 107.458 88.729 107.458ZM76.069 88.728C76.069 81.748 81.749 76.07 88.729 76.07C95.709 76.07 101.388 81.749 101.388 88.729C101.388 92.105 100.07 95.282 97.676 97.676C96.5042 98.8556 95.1101 99.791 93.5743 100.428C92.0386 101.065 90.3917 101.392 88.729 101.388C81.749 101.388 76.069 95.709 76.069 88.728Z" fill="#D20764"/>
</g>
<defs>
<filter id="filter0_d_162_276" x="0" y="0" width="190.74" height="191" filterUnits="userSpaceOnUse" color-interpolation-filters="sRGB">
<feFlood flood-opacity="0" result="BackgroundImageFix"/>
<feColorMatrix in="SourceAlpha" type="matrix" values="0 0 0 0 0 0 0 0 0 0 0 0 0 0 0 0 0 0 127 0" result="hardAlpha"/>
<feOffset/>
<feGaussianBlur stdDeviation="35"/>
<feColorMatrix type="matrix" values="0 0 0 0 0.148125 0 0 0 0 0.634962 0 0 0 0 0.9875 0 0 0 0.7 0"/>
<feBlend mode="normal" in2="BackgroundImageFix" result="effect1_dropShadow_162_276"/>
<feBlend mode="normal" in="SourceGraphic" in2="effect1_dropShadow_162_276" result="shape"/>
</filter>
</defs>
</svg>
