<svg width="217" height="217" viewBox="0 0 217 217" fill="none" xmlns="http://www.w3.org/2000/svg">
<g filter="url(#filter0_d_118_60)">
<path d="M86.4448 128.35C95.101 128.35 101.883 123.506 101.883 117.322V115.117H96.9312L90.2284 91.6598C92.6686 91.2237 94.648 90.7421 96.4509 90.2969C99.4999 89.548 102.279 88.9146 106.295 88.7303V133.932L87.9777 146.141H129.017L110.705 133.934V88.7303C114.723 88.9146 117.5 89.548 120.549 90.2969C122.352 90.7421 124.332 91.2237 126.772 91.6598L120.069 115.117H115.117V117.322C115.117 123.506 121.899 128.35 130.555 128.35C139.212 128.35 146.141 123.506 146.141 117.322V115.117H141.042L134.619 92.6372C137.759 92.8916 141.578 93.0616 146.141 93.0616V88.6498C132.912 88.6498 127.252 84.5768 122.386 80.9839C118.983 78.4685 115.741 75.9348 110.705 75.3883V70.8584H106.295V75.3883C101.259 75.9335 98.0176 78.4685 94.613 80.9839C89.7481 84.5768 84.0877 88.6498 70.8586 88.6498V93.0616C75.421 93.0616 79.2397 92.8929 82.3795 92.6372L75.9584 115.117H70.8586V117.322C70.8586 123.506 77.7886 128.35 86.4448 128.35ZM136.453 115.117H124.657L130.555 94.4777L136.453 115.117ZM86.4435 94.4738L92.3415 115.117H80.5468L86.4435 94.4738Z" fill="#D20764"/>
</g>
<defs>
<filter id="filter0_d_118_60" x="0.858643" y="0.858398" width="215.283" height="215.283" filterUnits="userSpaceOnUse" color-interpolation-filters="sRGB">
<feFlood flood-opacity="0" result="BackgroundImageFix"/>
<feColorMatrix in="SourceAlpha" type="matrix" values="0 0 0 0 0 0 0 0 0 0 0 0 0 0 0 0 0 0 127 0" result="hardAlpha"/>
<feOffset/>
<feGaussianBlur stdDeviation="35"/>
<feColorMatrix type="matrix" values="0 0 0 0 0.148125 0 0 0 0 0.634962 0 0 0 0 0.9875 0 0 0 0.7 0"/>
<feBlend mode="normal" in2="BackgroundImageFix" result="effect1_dropShadow_118_60"/>
<feBlend mode="normal" in="SourceGraphic" in2="effect1_dropShadow_118_60" result="shape"/>
</filter>
</defs>
</svg>
