<svg width="219" height="216" viewBox="0 0 219 216" fill="none" xmlns="http://www.w3.org/2000/svg">
<g filter="url(#filter0_d_118_76)">
<path d="M145.944 109.974C145.556 109.974 145.172 110.05 144.814 110.199C144.456 110.347 144.13 110.565 143.856 110.84C143.581 111.115 143.364 111.442 143.215 111.801C143.066 112.161 142.99 112.546 142.989 112.935V116.885H141.019V105.039C141.019 99.0489 136.161 94.1804 130.185 94.1804H112.455V85.6943C115.339 84.5212 117.38 81.6893 117.38 78.3855C117.38 74.0299 113.846 70.4873 109.5 70.4873C105.154 70.4873 101.62 74.0299 101.62 78.3855C101.62 81.6893 103.661 84.5212 106.545 85.6943V94.179H88.8156C82.8378 94.179 77.9809 99.0489 77.9809 105.037V116.885H76.0109V112.935C76.0109 111.301 74.6877 109.975 73.056 109.975C71.4257 109.975 70.1011 111.301 70.1011 112.935V126.757C70.1011 128.391 71.4243 129.718 73.056 129.718C74.6863 129.718 76.0109 128.391 76.0109 126.757V122.807H77.9809V134.653C77.9809 140.644 82.8392 145.513 88.8156 145.513H130.185C136.161 145.513 141.019 140.644 141.019 134.653V122.807H142.989V126.757C142.989 128.391 144.312 129.718 145.944 129.718C146.727 129.718 147.478 129.407 148.032 128.851C148.586 128.296 148.898 127.543 148.899 126.757V112.935C148.899 111.301 147.576 109.974 145.944 109.974ZM89.8006 113.923C89.8006 109.567 93.3343 106.025 97.6804 106.025C102.026 106.025 105.56 109.567 105.56 113.923C105.56 118.279 102.026 121.821 97.6804 121.821C93.3343 121.821 89.8006 118.279 89.8006 113.923ZM118.365 133.667H100.635C99.005 133.667 97.6804 132.34 97.6804 130.706C97.6804 129.07 99.0036 127.744 100.635 127.744H118.365C119.996 127.744 121.32 129.07 121.32 130.706C121.319 131.492 121.007 132.245 120.453 132.8C119.899 133.356 119.148 133.667 118.365 133.667ZM121.32 121.821C116.974 121.821 113.44 118.279 113.44 113.923C113.44 109.567 116.974 106.025 121.32 106.025C125.666 106.025 129.2 109.567 129.2 113.923C129.2 118.279 125.666 121.821 121.32 121.821Z" fill="#D20764"/>
</g>
<defs>
<filter id="filter0_d_118_76" x="0.101074" y="0.487305" width="218.798" height="215.025" filterUnits="userSpaceOnUse" color-interpolation-filters="sRGB">
<feFlood flood-opacity="0" result="BackgroundImageFix"/>
<feColorMatrix in="SourceAlpha" type="matrix" values="0 0 0 0 0 0 0 0 0 0 0 0 0 0 0 0 0 0 127 0" result="hardAlpha"/>
<feOffset/>
<feGaussianBlur stdDeviation="35"/>
<feColorMatrix type="matrix" values="0 0 0 0 0.148125 0 0 0 0 0.634962 0 0 0 0 0.9875 0 0 0 0.7 0"/>
<feBlend mode="normal" in2="BackgroundImageFix" result="effect1_dropShadow_118_76"/>
<feBlend mode="normal" in="SourceGraphic" in2="effect1_dropShadow_118_76" result="shape"/>
</filter>
</defs>
</svg>
