<svg width="120" height="120" viewBox="0 0 120 120" fill="none" xmlns="http://www.w3.org/2000/svg">
<g clip-path="url(#clip0_130_336)">
<g filter="url(#filter0_i_130_336)">
<path d="M105 0H15C6.71573 0 0 6.71573 0 15V105C0 113.284 6.71573 120 15 120H105C113.284 120 120 113.284 120 105V15C120 6.71573 113.284 0 105 0Z" fill="#1E1C33"/>
<path d="M105 0H15C6.71573 0 0 6.71573 0 15V105C0 113.284 6.71573 120 15 120H105C113.284 120 120 113.284 120 105V15C120 6.71573 113.284 0 105 0Z" fill="url(#paint0_linear_130_336)" fill-opacity="0.1"/>
</g>
<g filter="url(#filter1_d_130_336)">
<path d="M71.7513 62.4758C71.7513 61.4127 72.6173 60.551 73.6859 60.551H75.5736C74.695 53.439 69.0126 47.7858 61.8647 46.9111V48.7893C61.8647 49.8525 60.9987 50.7142 59.9301 50.7142C58.862 50.7142 57.9955 49.8525 57.9955 48.7893V46.9111C50.8481 47.7858 45.1662 53.439 44.2871 60.551H46.1748C47.2434 60.551 48.1094 61.4127 48.1094 62.4758C48.1094 63.5385 47.2434 64.4007 46.1748 64.4007H44.2871C45.1657 71.5121 50.8481 77.1654 57.9955 78.0401V76.1618C57.9955 75.0987 58.862 74.237 59.9301 74.237C60.9987 74.237 61.8647 75.0987 61.8647 76.1618V78.0401C69.0126 77.1659 74.6945 71.5121 75.5736 64.4007H73.6859C72.6173 64.4007 71.7513 63.5385 71.7513 62.4758ZM65.4568 67.9742C65.0789 68.3501 64.5837 68.5381 64.089 68.5381C63.5937 68.5381 63.0985 68.3501 62.7206 67.9742L58.5623 63.8368C58.1995 63.4759 57.996 62.9861 57.996 62.4758V57.394C57.996 56.3308 58.862 55.4692 59.9306 55.4692C60.9987 55.4692 61.8652 56.3308 61.8652 57.394V61.6783L65.4568 65.2518C66.2125 66.0037 66.2125 67.2223 65.4568 67.9742Z" fill="white"/>
<path d="M61.5385 43.6583V42.0282H61.8698C62.7194 42.0282 63.4081 41.3504 63.4081 40.5141C63.4081 39.6778 62.7194 39 61.8698 39H58.1302C57.281 39 56.5919 39.6778 56.5919 40.5141C56.5919 41.3504 57.281 42.0282 58.1302 42.0282H58.4615V43.6583C48.7018 44.4319 41 52.4962 41 62.2982C41 72.6104 49.5235 81 59.9998 81C70.4766 81 79 72.6104 79 62.2986C79 52.4962 71.2982 44.4319 61.5385 43.6583ZM60.0002 77.6626C51.393 77.6626 44.3906 70.7702 44.3906 62.2982C44.3906 53.8262 51.393 46.9338 60.0002 46.9338C68.6074 46.9338 75.6098 53.8266 75.6098 62.2986C75.6098 70.7702 68.607 77.6626 60.0002 77.6626Z" fill="white"/>
<path d="M37.0365 56.189H31.3613C30.5203 56.189 29.8379 55.5066 29.8379 54.6655C29.8379 53.8241 30.5203 53.1421 31.3613 53.1421H37.0365C37.878 53.1421 38.56 53.8241 38.56 54.6655C38.56 55.5066 37.878 56.189 37.0365 56.189Z" fill="white"/>
<path d="M37.036 62.4946H28.5234C27.682 62.4946 27 61.8127 27 60.9712C27 60.1297 27.682 59.4478 28.5234 59.4478H37.036C37.8775 59.4478 38.5595 60.1297 38.5595 60.9712C38.5595 61.8127 37.8775 62.4946 37.036 62.4946Z" fill="white"/>
<path d="M37.0365 68.8003H31.3613C30.5203 68.8003 29.8379 68.1183 29.8379 67.2769C29.8379 66.4354 30.5203 65.7534 31.3613 65.7534H37.0365C37.878 65.7534 38.56 66.4354 38.56 67.2769C38.56 68.1183 37.878 68.8003 37.0365 68.8003Z" fill="white"/>
</g>
</g>
<defs>
<filter id="filter0_i_130_336" x="0" y="0" width="121" height="121" filterUnits="userSpaceOnUse" color-interpolation-filters="sRGB">
<feFlood flood-opacity="0" result="BackgroundImageFix"/>
<feBlend mode="normal" in="SourceGraphic" in2="BackgroundImageFix" result="shape"/>
<feColorMatrix in="SourceAlpha" type="matrix" values="0 0 0 0 0 0 0 0 0 0 0 0 0 0 0 0 0 0 127 0" result="hardAlpha"/>
<feOffset dx="1" dy="1"/>
<feGaussianBlur stdDeviation="2"/>
<feComposite in2="hardAlpha" operator="arithmetic" k2="-1" k3="1"/>
<feColorMatrix type="matrix" values="0 0 0 0 1 0 0 0 0 1 0 0 0 0 1 0 0 0 0.05 0"/>
<feBlend mode="normal" in2="shape" result="effect1_innerShadow_130_336"/>
</filter>
<filter id="filter1_d_130_336" x="2" y="14" width="102" height="92" filterUnits="userSpaceOnUse" color-interpolation-filters="sRGB">
<feFlood flood-opacity="0" result="BackgroundImageFix"/>
<feColorMatrix in="SourceAlpha" type="matrix" values="0 0 0 0 0 0 0 0 0 0 0 0 0 0 0 0 0 0 127 0" result="hardAlpha"/>
<feOffset/>
<feGaussianBlur stdDeviation="12.5"/>
<feColorMatrix type="matrix" values="0 0 0 0 0.823529 0 0 0 0 0.027451 0 0 0 0 0.392157 0 0 0 0.4 0"/>
<feBlend mode="normal" in2="BackgroundImageFix" result="effect1_dropShadow_130_336"/>
<feBlend mode="normal" in="SourceGraphic" in2="effect1_dropShadow_130_336" result="shape"/>
</filter>
<linearGradient id="paint0_linear_130_336" x1="60" y1="0" x2="60" y2="120" gradientUnits="userSpaceOnUse">
<stop stop-color="#00A3FF"/>
<stop offset="1" stop-color="#26A2FC" stop-opacity="0"/>
</linearGradient>
<clipPath id="clip0_130_336">
<rect width="120" height="120" fill="white"/>
</clipPath>
</defs>
</svg>
