<svg width="35" height="33" viewBox="0 0 35 33" fill="none" xmlns="http://www.w3.org/2000/svg">
<path d="M31.5 6.94737H26.25V3.47368C26.25 1.55795 24.6803 0 22.75 0H12.25C10.3197 0 8.75 1.55795 8.75 3.47368V6.94737H3.5C1.56975 6.94737 0 8.50532 0 10.4211V29.5263C0 31.4421 1.56975 33 3.5 33H31.5C33.4302 33 35 31.4421 35 29.5263V10.4211C35 8.50532 33.4302 6.94737 31.5 6.94737ZM22.75 3.47368V6.94737H12.25V3.47368H22.75ZM10.5 10.4211H31.5V15.6316H3.5V10.4211H10.5ZM3.5 29.5263V19.1053H14V22.5789H21V19.1053H31.5L31.5017 29.5263H3.5Z" fill="#A183F4"/>
</svg>
