<svg width="35" height="35" viewBox="0 0 35 35" fill="none" xmlns="http://www.w3.org/2000/svg">
<path d="M35 5.64244C35 2.68265 32.6445 0.274017 29.75 0.274017H5.25C2.3555 0.274017 0 2.68265 0 5.64244V10.7084C0 12.5928 0.6685 14.3053 1.75 15.6223V30.6951C1.75 32.6689 3.31975 34.274 5.25 34.274H29.75C31.6803 34.274 33.25 32.6689 33.25 30.6951V15.6205C34.3315 14.3053 35 12.5928 35 10.7066V5.64244ZM31.5 5.64244V10.7084C31.5 12.7484 30.0142 14.4878 28.1907 14.5862L28 14.5898C26.0697 14.5898 24.5 12.9846 24.5 11.0109V3.85296H29.75C30.716 3.85296 31.5 4.65644 31.5 5.64244ZM14 3.85296H21V11.0109C21 12.9846 19.4303 14.5898 17.5 14.5898C15.5697 14.5898 14 12.9846 14 11.0109V3.85296ZM3.5 5.64244C3.5 4.65644 4.284 3.85296 5.25 3.85296H10.5V11.0109C10.5 12.9846 8.93025 14.5898 7 14.5898L6.80925 14.5844C4.98575 14.4878 3.5 12.7484 3.5 10.7084V5.64244ZM14 30.6951V25.3266H21V30.6951H14ZM24.5 30.6951V25.3266C24.5 23.3529 22.9303 21.7477 21 21.7477H14C12.0697 21.7477 10.5 23.3529 10.5 25.3266V30.6951H5.25V17.9343C5.6945 18.0542 6.15475 18.133 6.62725 18.158C7.6823 18.2166 8.73658 18.0294 9.71059 17.6106C10.6846 17.1918 11.5529 16.5524 12.25 15.7404C13.5328 17.2293 15.4123 18.1688 17.5 18.1688C19.5877 18.1688 21.4673 17.2293 22.75 15.7404C23.4471 16.5524 24.3154 17.1918 25.2894 17.6106C26.2634 18.0294 27.3177 18.2166 28.3727 18.158C28.847 18.133 29.3055 18.0542 29.75 17.9343V30.6951H24.5Z" fill="#A183F4"/>
</svg>
