<svg width="38" height="35" viewBox="0 0 38 35" fill="none" xmlns="http://www.w3.org/2000/svg">
<path d="M37.657 8.49626C37.4822 8.24373 37.2489 8.03732 36.9769 7.89472C36.7049 7.75211 36.4025 7.67757 36.0954 7.67746H10.1314L7.93908 2.41514C7.65163 1.72215 7.16487 1.13012 6.54053 0.714118C5.91619 0.298114 5.18237 0.0768704 4.43213 0.0784385H0V3.87795H4.43213L13.4446 25.5067C13.5889 25.8527 13.8325 26.1483 14.1445 26.3562C14.4565 26.5641 14.8231 26.6751 15.1981 26.675H30.3961C31.1883 26.675 31.8969 26.183 32.1762 25.444L37.8754 10.2459C37.9832 9.95835 38.0196 9.64894 37.9815 9.34422C37.9435 9.03949 37.8321 8.74853 37.657 8.49626ZM29.0796 22.8755H16.4652L11.7158 11.477H33.354L29.0796 22.8755Z" fill="#A183F4"/>
<path d="M16.1475 34.274C17.7213 34.274 18.9971 32.9982 18.9971 31.4244C18.9971 29.8506 17.7213 28.5748 16.1475 28.5748C14.5737 28.5748 13.2979 29.8506 13.2979 31.4244C13.2979 32.9982 14.5737 34.274 16.1475 34.274Z" fill="#A183F4"/>
<path d="M29.4463 34.274C31.0201 34.274 32.2959 32.9982 32.2959 31.4244C32.2959 29.8506 31.0201 28.5748 29.4463 28.5748C27.8725 28.5748 26.5967 29.8506 26.5967 31.4244C26.5967 32.9982 27.8725 34.274 29.4463 34.274Z" fill="#A183F4"/>
</svg>
