<svg width="36" height="41" viewBox="0 0 36 41" fill="none" xmlns="http://www.w3.org/2000/svg">
<path d="M18 0.91217C16.0222 0.91217 14.0888 1.52953 12.4443 2.68617C10.7998 3.84282 9.51808 5.48681 8.7612 7.41024C8.00433 9.33367 7.8063 11.4502 8.19215 13.4921C8.578 15.534 9.53041 17.4096 10.9289 18.8817C12.3275 20.3538 14.1093 21.3564 16.0491 21.7625C17.9889 22.1687 19.9996 21.9602 21.8268 21.1635C23.6541 20.3668 25.2159 19.0176 26.3147 17.2866C27.4135 15.5556 28 13.5204 28 11.4385C28 8.64673 26.9464 5.96932 25.0711 3.99526C23.1957 2.02119 20.6522 0.91217 18 0.91217ZM18 17.7543C16.8133 17.7543 15.6533 17.3839 14.6666 16.6899C13.6799 15.9959 12.9108 15.0095 12.4567 13.8554C12.0026 12.7014 11.8838 11.4315 12.1153 10.2063C12.3468 8.98119 12.9182 7.85583 13.7574 6.97255C14.5965 6.08927 15.6656 5.48775 16.8295 5.24405C17.9933 5.00036 19.1997 5.12543 20.2961 5.60346C21.3925 6.08149 22.3295 6.891 22.9888 7.92962C23.6481 8.96825 24 10.1893 24 11.4385C24 13.1135 23.3679 14.72 22.2426 15.9044C21.1174 17.0889 19.5913 17.7543 18 17.7543ZM36 40.9122V38.8069C36 34.8985 34.525 31.1501 31.8995 28.3864C29.274 25.6227 25.713 24.0701 22 24.0701H14C10.287 24.0701 6.72601 25.6227 4.1005 28.3864C1.475 31.1501 0 34.8985 0 38.8069V40.9122H4V38.8069C4 36.0152 5.05357 33.3377 6.92893 31.3637C8.8043 29.3896 11.3478 28.2806 14 28.2806H22C24.6522 28.2806 27.1957 29.3896 29.0711 31.3637C30.9464 33.3377 32 36.0152 32 38.8069V40.9122H36Z" fill="#A183F4"/>
</svg>
