<svg width="53" height="29" viewBox="0 0 53 29" fill="none" xmlns="http://www.w3.org/2000/svg">
<path d="M33.085 8.61342C33.2894 7.99542 33.3513 7.89037 33.2708 7.13024C33.4773 6.71623 33.7268 6.39769 34.0017 6.19707C34.0676 6.443 34.1041 6.71597 34.1083 6.99467C34.1126 7.27337 34.0846 7.5503 34.0265 7.80385C33.9498 8.2418 33.7956 8.60885 33.5929 8.83588C33.4617 8.87325 33.328 8.8391 33.2058 8.73698L33.085 8.61342Z" fill="white"/>
<path d="M31.422 2.29123C31.1928 2.49517 30.2823 1.80301 29.9417 1.67324C28.88 1.25058 27.7906 1.18166 26.7176 1.4693C26.0022 1.74739 25.2713 2.27886 24.5776 2.48898C24.2605 2.54884 23.9418 2.56536 23.6237 2.53842H22.2734L22.1712 2.74854C22.2374 3.14655 22.2544 3.57059 22.2207 3.98453C22.1835 4.16993 22.0597 4.28117 21.9699 4.34914C21.4248 4.78175 20.0094 5.62839 19.7617 6.75314V6.7964L19.6811 6.7346C19.6533 5.60986 20.8611 3.42215 21.2668 2.60641C20.8589 2.5528 20.4532 2.44336 20.0528 2.27886C20.5552 2.17717 21.0545 2.02246 21.5487 1.81537C22.3105 1.43222 23.029 0.845123 23.8095 0.511406C24.8163 0.10924 25.8433 -0.056684 26.8694 0.017011C27.4884 0.0392225 28.1048 0.186228 28.709 0.455787C29.2479 0.709164 29.9262 1.32098 30.4681 1.27772L30.815 0.319828L30.9327 0.356907C31.0063 1.07732 31.1752 1.74524 31.422 2.29123Z" fill="white"/>
<path d="M33.9274 9.90503C33.8543 9.71045 33.7612 9.5491 33.6544 9.4319C33.5476 9.31469 33.4295 9.24427 33.308 9.2252C32.7227 9.05842 32.0041 9.84325 31.4839 10.3253C31.2679 10.602 31.0252 10.7852 30.7715 10.8629C30.7963 10.5354 30.8521 10.4921 30.9821 10.3067C31.44 9.76384 31.9273 9.32639 32.4346 9.00274C32.5935 8.82732 32.7632 8.69435 32.9395 8.60723C32.9783 8.22095 32.9939 7.82675 32.9859 7.43306C32.732 6.81507 32.5554 6.92013 32.2147 6.61112C31.9591 6.35045 31.711 6.06161 31.4715 5.74594L32.989 5.86335C33.1156 5.89127 33.2433 5.89127 33.37 5.86335C33.4582 5.75834 33.5402 5.63396 33.6146 5.49256C33.1996 5.21446 32.8125 4.81277 32.4006 4.52849C32.1724 4.45103 31.9498 4.31821 31.7378 4.13297L31.679 4.04028C31.7775 3.91513 31.8493 3.72129 31.8803 3.49644L31.648 2.94642L31.3166 3.40992C31.1431 3.28632 31.041 2.88463 30.9109 2.79192C29.5746 2.03735 28.1474 2.25642 26.8847 3.40992C26.606 3.67566 26.3706 4.10825 26.1043 4.41107C25.7636 5.23918 25.5066 5.91897 25.5623 7.06226C25.5704 7.27701 25.5998 7.48641 25.6487 7.67839C25.6976 7.87037 25.7651 8.04113 25.8472 8.18083C26.0223 8.4447 26.2222 8.63546 26.4351 8.74164C26.648 8.84783 26.8693 8.86724 27.086 8.79885C27.5816 8.69376 28.0554 7.88419 28.4859 7.40834C28.7738 7.1262 29.0707 6.88259 29.3748 6.67911C28.9907 7.61846 28.3001 9.02749 28.3651 10.3253C28.3925 10.8932 28.5237 11.4211 28.7337 11.8084C28.7707 11.8866 28.8154 11.9488 28.8649 11.9913C28.9145 12.0338 28.9678 12.0557 29.0217 12.0556C29.7526 12.0927 30.4618 11.8332 31.1896 12.1793C31.6355 12.4217 32.0673 12.7572 32.478 13.1804C32.6204 13.3226 32.8713 13.6562 33.02 13.6254C33.1696 13.2502 33.3003 12.8466 33.4102 12.4203C33.4534 12.078 33.5179 11.7479 33.6022 11.4377C33.6392 11.409 33.6776 11.3883 33.7168 11.3759L33.9863 11.8703L34.1256 11.7466C34.1711 11.1053 34.1008 10.4526 33.9274 9.90503ZM29.2819 5.21446C29.2514 5.25151 29.2193 5.28257 29.1858 5.30716C28.9257 5.46784 28.2815 5.06614 28.0399 4.81277C27.9222 4.69535 27.9222 4.66445 27.882 4.41107C28.1399 4.2329 28.4113 4.14508 28.6841 4.15151C28.7582 4.3683 28.8225 4.59787 28.8762 4.83749L28.9938 4.8004C28.9875 4.51701 28.9969 4.23308 29.0217 3.95375H29.0899C29.6318 3.7251 30.4618 4.99198 30.8954 5.57907C30.2822 5.57907 29.9415 4.76951 29.2819 5.22682V5.21446Z" fill="white"/>
<path d="M29.5857 18.1429L29.3906 19.5087C28.127 16.74 26.5754 15.986 24.8224 15.226C24.1582 15.0038 23.5045 14.671 22.8682 14.231C22.4151 13.8763 21.9888 13.398 21.6015 12.8096C21.3465 12.2958 21.058 11.853 20.7436 11.4933C21.3321 13.6377 22.1249 14.5833 23.2832 15.2445C24.1937 15.776 25.1817 16.0788 25.6803 17.9019L25.9126 18.8598C25.4829 18.3726 25.037 17.9451 24.5778 17.5805C23.1036 16.499 21.7409 16.017 20.4556 13.9961C20.1031 13.5331 19.8281 12.8702 19.6659 12.0927C19.4646 10.7455 19.7495 10.4488 19.8455 9.26232C19.7675 9.27435 19.6915 9.31715 19.6219 9.38825C19.5522 9.45936 19.4903 9.55724 19.4398 9.67639C19.2818 9.96681 19.1641 10.2944 19 10.6095C19.209 9.23868 19.5895 7.99658 20.1056 7.00046C20.8038 5.85832 21.6238 5.05072 22.5028 4.63973L23.085 5.87571C22.67 6.35775 22.2178 6.9572 22.0816 7.95217C22.0507 8.15649 22.0406 8.37101 22.0518 8.58325C22.0629 8.79546 22.0952 9.00105 22.1466 9.18817C22.2033 9.36605 22.2664 9.53537 22.3355 9.69495H22.4315C22.32 8.72469 22.2705 8.36005 22.5461 7.47014C22.6208 7.2388 22.7287 7.05786 22.8558 6.95102L22.9952 7.16732C22.9357 7.75223 22.9431 8.35638 23.0169 8.93478C23.2067 10.0417 23.525 11.0434 23.946 11.8579C24.6261 13.0114 25.4132 13.887 26.2625 14.4349C25.8011 13.7119 25.1631 12.8158 24.8596 11.827C24.6676 11.209 24.5499 10.486 24.3393 9.89885L24.2278 9.96681C24.2188 10.3879 24.2525 10.8083 24.3269 11.2028L24.1876 11.4315C23.8312 10.5305 23.5709 9.49376 23.4226 8.38477C23.4237 7.71286 23.4558 7.04259 23.5186 6.38247C23.7603 5.39734 24.1211 4.54779 24.5685 3.91049C25.2153 3.1082 25.9284 2.54117 26.6745 2.23573C27.1067 2.07336 27.5448 1.98242 27.9845 1.96381C27.0895 2.64979 26.2749 3.1071 25.5069 4.24421C25.0516 5.73358 24.8875 6.6791 25.095 8.39713C25.3025 10.1151 26.1882 11.3697 26.9036 12.241C27.0509 12.4087 27.2147 12.5099 27.3837 12.5377L27.523 12.4017C27.4518 12 27.2815 11.8455 27.0895 11.6601C26.9335 11.5086 26.7887 11.3153 26.659 11.0854C27.7832 11.6293 28.8548 12.2287 29.4928 14.3175C29.7684 15.2569 29.7126 17.1047 29.5857 18.1429Z" fill="white"/>
<path d="M29.992 22.3675C30.0423 22.3161 30.0971 22.2826 30.1532 22.2686C30.63 22.1759 34.9132 22.145 35.0618 22.3922L35.1271 23.8013C34.6591 23.8013 33.7582 23.585 33.3338 23.894L33.3028 24.5676V28.6278H31.7544L31.7326 23.8322C31.327 23.8322 30.2646 24.0546 29.9795 23.6097L29.992 22.3675Z" fill="white"/>
<path d="M48.6345 22.3675H48.6684C49.4918 22.2049 50.3202 22.1739 51.1461 22.2748C51.4152 22.2748 51.7995 22.1821 52.0101 22.4973C52.057 22.927 52.0293 23.3755 51.9326 23.7704L51.0841 23.8507L51.0624 27.0952C51.3533 27.0382 51.6472 27.0736 51.9326 27.2002L51.9975 27.2805L52.0318 28.4053C51.8305 28.7143 51.499 28.6031 51.2449 28.6093H48.6437L48.5445 28.4053C48.5273 27.9577 48.5746 27.5096 48.6809 27.1138L49.4641 27.1508C49.6006 26.5699 49.4985 24.4996 49.4985 23.7827C49.1996 23.8832 48.8936 23.8452 48.6035 23.6715C48.5599 23.2383 48.5704 22.7905 48.6345 22.3675Z" fill="white"/>
<path d="M0.0833435 22.2131C0.876055 22.3233 1.6714 22.3378 2.46499 22.2563C2.77581 22.2178 3.0878 22.2551 3.39409 22.3676C3.46199 22.7647 3.48112 23.1886 3.44985 23.6035C3.24544 23.8693 2.75609 23.8137 2.52071 23.8384V27.0643C2.80566 27.1138 3.26712 27.0643 3.48082 27.4166L3.45294 28.393C3.35968 28.5443 3.24159 28.6214 3.12153 28.6093H0.820464C0.593999 28.6588 0.365526 28.6588 0.139102 28.6093C0.111223 28.6093 0.0430737 28.4239 0.0183342 28.3744C-0.0104658 27.9233 0.0317721 27.4654 0.139102 27.0643L0.835953 27.1014C1.0558 26.5884 0.95672 24.6294 0.95672 23.8569C0.635525 23.9165 0.311776 23.8233 0.0121384 23.585C-0.0173314 23.1228 0.00703189 22.6533 0.0833435 22.2131Z" fill="white"/>
<path d="M17.1331 22.213C17.4676 22.2872 18.3472 22.0153 18.5887 22.2934C18.7126 22.4355 18.8799 23.1771 18.9697 23.4676L20.0444 26.8418C20.5368 25.3215 20.9518 23.5973 21.531 22.2192C22.0475 22.1182 22.5686 22.1598 23.0795 22.3428C23.037 22.7332 22.9466 23.0964 22.8162 23.3996L20.992 28.6031C20.3393 28.6691 19.6849 28.636 19.0347 28.5042L17.8517 25.031C17.6256 24.4131 17.0619 22.9608 17.1331 22.213Z" fill="white"/>
<path d="M24.0801 22.2625H26.4987C26.8859 22.2625 28.7102 22.0833 28.9271 22.5158C28.9806 22.9438 28.9585 23.3955 28.8651 23.7951C27.8337 23.5294 26.6972 23.7951 25.6534 23.8569L25.5356 24.1412L25.6348 24.4934C25.9504 24.623 26.2735 24.6625 26.595 24.6108L28.0907 24.7159L28.2054 24.9878C28.1865 25.5008 28.2054 25.6923 28.0321 26.0878L27.143 26.1497C26.793 26.1497 25.8578 26.0508 25.5945 26.4587L25.5728 26.7677C25.7586 27.1817 25.9259 27.0704 26.1923 27.0766H28.1154C28.3837 26.9854 28.6596 27.0453 28.9116 27.2497C28.9484 27.7132 29.0447 28.189 28.9116 28.5783L24.111 28.6402L24.0801 22.2625Z" fill="white"/>
<path d="M12.8257 22.0338C13.5315 21.9535 14.9933 21.9411 15.591 22.8867C15.6823 23.0149 15.7572 23.1829 15.8112 23.3777C15.8648 23.5726 15.8954 23.7893 15.9008 24.0114C15.3838 25.0373 13.9313 23.4676 13.2623 23.5479C13.0225 23.5298 12.7876 23.6882 12.6026 23.9929L12.6428 24.2215C12.9178 24.4492 13.2125 24.5668 13.5101 24.5676C14.1745 24.611 14.8325 24.8441 15.4642 25.2598C15.6141 25.3521 15.7514 25.5115 15.8656 25.7257C15.9799 25.9399 16.0682 26.2032 16.1239 26.4957C16.1323 26.6876 16.1218 26.8809 16.0925 27.0644C16.0632 27.248 16.0159 27.4181 15.9535 27.5649C15.5634 28.5351 14.4637 28.6278 13.8814 28.7514C13.0367 28.8899 12.1865 28.6945 11.379 28.1767C11.2555 28.0875 11.1434 27.9432 11.0517 27.7548C10.9596 27.5663 10.8905 27.3387 10.8495 27.089C10.7972 26.8418 10.8219 26.811 10.8713 26.5699C11.2853 26.3351 11.724 26.3351 12.138 26.5699C12.5654 26.8418 12.8935 27.2806 13.3611 27.2868C13.7236 27.2868 14.182 27.2868 14.4424 26.7615C14.2285 26.1064 12.0513 25.9395 11.5155 25.4946C11.3786 25.3909 11.2555 25.2253 11.1563 25.0109C11.0567 24.7964 10.9839 24.5389 10.9424 24.2586C10.9579 23.8 11.0374 23.3591 11.1718 22.9855C11.6921 22.4854 12.2514 22.1637 12.8257 22.0338Z" fill="white"/>
<path d="M40.2335 24.6603V25.8468C39.8869 26.7367 38.1928 25.6799 37.685 26.4649V26.8047C38.233 27.7008 40.3172 26.5081 41.0142 27.2805C41.0142 27.7317 41.1037 28.1766 40.9551 28.5166L36.127 28.6031V22.1945C37.3196 22.3243 38.5427 22.1945 39.7383 22.1945C40.0727 22.1945 40.7383 22.0276 41.0016 22.3861C41.0171 22.8805 41.0824 23.3254 40.9396 23.7518H40.2615H38.3506C38.1513 23.7044 37.9491 23.7466 37.7591 23.8754L37.6879 23.9681V24.4131L37.7528 24.512C37.9295 24.6176 38.1149 24.6513 38.2978 24.6108L40.2335 24.6603Z" fill="white"/>
<path d="M9.45743 22.213C9.55274 22.1978 9.64848 22.2296 9.73617 22.3057C9.81424 23.0092 9.83827 23.7323 9.80738 24.4501L9.7795 28.6154C9.2809 28.6154 8.54072 28.807 8.07306 28.5042C7.89344 28.3929 7.63327 27.7811 7.49082 27.5154L6.02901 24.8827V28.5907L4.79019 28.6401C4.68035 28.6586 4.57076 28.5995 4.48047 28.4732V22.2501C4.94813 22.2501 5.66357 22.0647 6.10641 22.2501C6.2551 22.3242 6.51212 22.899 6.62984 23.1153L8.21551 25.9889V22.3428C8.46638 22.0832 9.15394 22.2254 9.45743 22.213Z" fill="white"/>
<path d="M47.0894 27.089L46.4079 25.9333C46.7177 25.6677 47.0802 25.4266 47.2505 24.8333C47.3041 24.416 47.2752 23.9733 47.1698 23.5973C46.4205 22.1327 45.3116 22.2996 44.3421 22.2872L42.0971 22.2192L42.041 28.6278L43.633 28.5907V26.4771C44.124 26.3887 44.6188 26.4596 45.0981 26.6873C45.3024 27.1199 45.7578 28.3559 45.9931 28.5413C46.2283 28.7267 46.9592 28.6216 47.2317 28.6402L47.5415 28.5166C47.4866 27.9437 47.3251 27.4336 47.0894 27.089ZM45.3116 24.9075C44.7862 25.0991 44.2483 25.0991 43.723 24.9075C43.571 24.5985 43.6083 24.4687 43.6083 24.0547L43.8067 23.7395C44.2044 23.6406 44.6071 23.6406 45.0052 23.7395C45.119 23.7331 45.2325 23.7718 45.3388 23.8535C45.4451 23.9352 45.5422 24.0582 45.6243 24.2153C45.5565 24.6541 45.5037 24.6665 45.3116 24.9075Z" fill="white"/>
</svg>
