<svg width="36" height="35" viewBox="0 0 36 35" fill="none" xmlns="http://www.w3.org/2000/svg">
<path d="M0.442383 0V32.1852C0.442383 32.6873 0.641849 33.1688 0.996901 33.5239C1.35195 33.879 1.83351 34.0784 2.33563 34.0784H34.5208V30.2919H4.22887V0H0.442383Z" fill="#A183F4"/>
<path d="M23.7163 22.1642C23.8919 22.3402 24.1006 22.4798 24.3303 22.575C24.5599 22.6703 24.8062 22.7193 25.0548 22.7193C25.3034 22.7193 25.5497 22.6703 25.7793 22.575C26.009 22.4798 26.2177 22.3402 26.3933 22.1642L35.8596 12.698L33.1825 10.021L25.0548 18.1487L20.7136 13.8074C20.5379 13.6315 20.3293 13.4919 20.0996 13.3966C19.8699 13.3014 19.6237 13.2523 19.3751 13.2523C19.1264 13.2523 18.8802 13.3014 18.6505 13.3966C18.4209 13.4919 18.2122 13.6315 18.0365 13.8074L8.57031 23.2737L11.2474 25.9507L19.3751 17.823L23.7163 22.1642Z" fill="#A183F4"/>
</svg>
