<svg width="48" height="48" viewBox="0 0 48 48" fill="none" xmlns="http://www.w3.org/2000/svg">
<path d="M14.7392 44.6606L38.7397 20.6601L27.3399 9.26027L3.33937 33.2608C3.00895 33.5917 2.77424 34.0057 2.66013 34.4592L0 48L13.5382 45.3399C13.9928 45.2262 14.4086 44.9912 14.7392 44.6606ZM46.4877 12.9121C47.456 11.9435 48 10.6299 48 9.26027C48 7.89062 47.456 6.57705 46.4877 5.60841L42.3916 1.51233C41.423 0.543985 40.1094 0 38.7397 0C37.3701 0 36.0565 0.543985 35.0879 1.51233L30.9918 5.60841L42.3916 17.0082L46.4877 12.9121Z" fill="#FF2388"/>
</svg>
