<svg width="60" height="60" viewBox="0 0 60 60" fill="none" xmlns="http://www.w3.org/2000/svg">
<path d="M30 0C24.0666 0 18.2664 1.75947 13.3329 5.05591C8.39943 8.35235 4.55426 13.0377 2.28363 18.5195C0.0129985 24.0013 -0.581102 30.0333 0.576455 35.8527C1.73401 41.6721 4.59124 47.0176 8.78681 51.2132C12.9824 55.4088 18.3279 58.266 24.1473 59.4236C29.9667 60.5811 35.9987 59.987 41.4805 57.7164C46.9623 55.4458 51.6477 51.6006 54.9441 46.6671C58.2405 41.7336 60 35.9334 60 30C60 26.0603 59.224 22.1593 57.7164 18.5195C56.2088 14.8797 53.999 11.5726 51.2132 8.7868C48.4275 6.00104 45.1203 3.79126 41.4805 2.28361C37.8408 0.775973 33.9397 0 30 0ZM30 9.99C30.9909 9.99 31.9595 10.2838 32.7834 10.8343C33.6073 11.3848 34.2495 12.1673 34.6287 13.0828C35.0079 13.9982 35.1071 15.0056 34.9138 15.9774C34.7204 16.9492 34.2433 17.8419 33.5426 18.5426C32.842 19.2433 31.9493 19.7204 30.9774 19.9137C30.0056 20.107 28.9982 20.0078 28.0828 19.6286C27.1673 19.2494 26.3849 18.6073 25.8344 17.7834C25.2838 16.9595 24.99 15.9909 24.99 15C24.99 13.6713 25.5179 12.397 26.4574 11.4574C27.397 10.5178 28.6713 9.99 30 9.99ZM39.99 47.49L35.01 50.01L30.84 38.34H29.16L24.99 50.01L20.01 47.49L24.99 33.33V28.35L15 24.99L16.68 20.01L26.67 23.34H33.33L43.32 20.01L45 24.99L35.01 28.35V33.33L39.99 47.49Z" fill="#D22273"/>
</svg>
