<svg width="46" height="46" viewBox="0 0 46 46" fill="none" xmlns="http://www.w3.org/2000/svg">
<path d="M23 0C10.3178 0 0 10.3178 0 23C0 35.6822 10.3178 46 23 46C35.6822 46 46 35.6822 46 23C46 10.3178 35.6822 0 23 0ZM31.0339 16.1C31.4925 16.0883 31.9488 16.1685 32.3758 16.3359C32.8029 16.5034 33.1922 16.7546 33.5206 17.0749C33.849 17.3952 34.11 17.7779 34.2881 18.2007C34.4663 18.6234 34.558 19.0775 34.5578 19.5362C34.5577 19.995 34.4657 20.449 34.2873 20.8716C34.1088 21.2942 33.8476 21.6768 33.5189 21.9969C33.1903 22.3169 32.8009 22.5679 32.3737 22.735C31.9465 22.9022 31.4902 22.9821 31.0316 22.9701C30.136 22.9466 29.2849 22.5743 28.6598 21.9324C28.0348 21.2905 27.6851 20.4299 27.6854 19.5339C27.6857 18.638 28.036 17.7776 28.6615 17.1361C29.2869 16.4947 30.1382 16.1229 31.0339 16.1ZM14.95 16.1C15.4032 16.1002 15.852 16.1896 16.2706 16.3631C16.6893 16.5367 17.0696 16.7911 17.39 17.1116C17.7104 17.4322 17.9644 17.8127 18.1377 18.2315C18.311 18.6503 18.4002 19.0991 18.4 19.5523C18.3998 20.0055 18.3104 20.4543 18.1369 20.8729C17.9633 21.2916 17.7089 21.6719 17.3884 21.9923C17.0678 22.3127 16.6873 22.5667 16.2685 22.74C15.8497 22.9133 15.4009 23.0025 14.9477 23.0023C14.0324 23.002 13.1547 22.6381 12.5077 21.9907C11.8607 21.3432 11.4974 20.4653 11.4977 19.55C11.498 18.6347 11.8619 17.757 12.5093 17.11C13.1568 16.463 14.0347 16.0997 14.95 16.1ZM23 36.8C13.8 36.8 11.5 27.6 11.5 27.6H34.5C34.5 27.6 32.2 36.8 23 36.8Z" fill="#D20764"/>
</svg>
