<svg width="47" height="47" viewBox="0 0 47 47" fill="none" xmlns="http://www.w3.org/2000/svg">
<path d="M33.1602 32.1993C33.1602 32.1993 40.0425 25.3756 42.3767 22.9729C49.7643 15.7648 46.0826 0.91604 46.0826 0.91604C46.0826 0.91604 31.2832 -2.7601 24.064 4.61621C18.433 10.0944 14.7753 13.8907 14.7753 13.8907C14.7753 13.8907 5.53472 11.9685 0 17.4947L29.4784 47C35.0131 41.4017 33.1602 32.1993 33.1602 32.1993ZM29.5506 10.5749C29.9976 10.1281 30.5284 9.7737 31.1126 9.53187C31.6969 9.29004 32.3232 9.16557 32.9556 9.16557C33.5881 9.16557 34.2144 9.29004 34.7987 9.53187C35.3829 9.7737 35.9137 10.1281 36.3607 10.5749C37.0332 11.2472 37.4911 12.1034 37.6764 13.0355C37.8616 13.9675 37.766 14.9334 37.4016 15.8112C37.0371 16.6889 36.4203 17.4391 35.6289 17.9669C34.8376 18.4947 33.9073 18.7764 32.9556 18.7764C32.004 18.7764 31.0737 18.4947 30.2824 17.9669C29.491 17.4391 28.8741 16.6889 28.5097 15.8112C28.1453 14.9334 28.0497 13.9675 28.2349 13.0355C28.4202 12.1034 28.878 11.2472 29.5506 10.5749ZM2.4064 44.5973C6.86081 44.4704 11.1251 42.7673 14.4384 39.7919L7.2192 32.5837C2.4064 34.9865 2.4064 44.5973 2.4064 44.5973Z" fill="#D20764"/>
</svg>
