<svg width="53" height="53" viewBox="0 0 53 53" fill="none" xmlns="http://www.w3.org/2000/svg">
<path d="M0.00439573 18.2066C-0.0596506 19.3511 0.580812 20.4177 1.62226 20.8967L22.5181 30.482L32.1027 51.3765C32.5594 52.3678 33.5507 53 34.634 53L34.7927 52.9944C35.3516 52.9631 35.888 52.7641 36.3321 52.4233C36.7762 52.0825 37.1073 51.6158 37.2821 51.0841L52.8621 3.65317C53.1879 2.65621 52.9261 1.55621 52.1854 0.81267C51.4447 0.0691259 50.3476 -0.184292 49.3451 0.135961L1.91465 15.7198C1.38273 15.8935 0.915719 16.2239 0.574839 16.6676C0.233958 17.1114 0.0351212 17.6478 0.00439573 18.2066Z" fill="#D20764"/>
</svg>
