<svg width="51" height="51" viewBox="0 0 51 51" fill="none" xmlns="http://www.w3.org/2000/svg">
<path d="M24.065 50.6976C24.8958 51.1025 25.9386 51.0999 26.7695 50.695C49.4116 39.5959 51.0196 17.9108 50.9998 11.7448C50.9977 11.2493 50.8372 10.765 50.538 10.3514C50.2389 9.93782 49.814 9.6128 49.3155 9.41618L26.566 0.220179C26.204 0.0745528 25.8126 -0.000442122 25.4169 1.96074e-06C25.0213 0.000446043 24.6301 0.0763191 24.2685 0.222758L1.67723 9.41876C1.18606 9.61549 0.767211 9.93692 0.470594 10.3447C0.173976 10.7526 0.0120904 11.2296 0.00422251 11.7191C-0.0918623 17.854 1.2618 39.5856 24.065 50.6976ZM16.1126 21.142L22.5926 27.0552L34.7248 15.9844L38.7207 19.6308L22.5926 34.348L12.1166 24.7884L16.1126 21.142Z" fill="#D20764"/>
</svg>
