<svg width="172" height="23" viewBox="0 0 172 23" fill="none" xmlns="http://www.w3.org/2000/svg">
<path d="M33.6406 10.1436C34.1289 9.41436 34.2769 9.2904 34.0845 8.39344C34.5778 7.90491 35.1738 7.52903 35.8306 7.2923C35.9879 7.5825 36.0751 7.9046 36.0853 8.23347C36.0956 8.56234 36.0287 8.88911 35.8898 9.1883C35.7066 9.70509 35.3383 10.1382 34.854 10.4061C34.5407 10.4502 34.2211 10.4099 33.9292 10.2894L33.6406 10.1436Z" fill="white"/>
<path d="M45.2187 0.503164C45.6405 0.393779 45.6627 0.364609 46.0696 0.597964C46.4469 2.42105 46.1362 4.92961 46.1362 6.81832V21.4686C45.9662 21.6224 45.7513 21.7194 45.5221 21.7457L45.13 21.4686L45.056 8.41534C45.0708 5.83386 44.8118 3.00443 45.2187 0.503164Z" fill="white"/>
<path d="M121.764 7.06624C121.884 7.00558 122.015 6.96609 122.149 6.94957C123.288 6.84018 133.52 6.80372 133.875 7.09541L134.031 8.75806C132.913 8.75806 130.761 8.50283 129.747 8.86745L129.673 9.66231V14.4534H125.974L125.922 8.79453C124.953 8.79453 122.415 9.05705 121.734 8.532L121.764 7.06624Z" fill="white"/>
<path d="M163.854 7.06625H163.935C165.902 6.8744 167.881 6.83782 169.854 6.95686C170.497 6.95686 171.415 6.84748 171.918 7.21939C172.03 7.72637 171.964 8.25566 171.733 8.72161L169.706 8.81641L169.654 12.6449C170.349 12.5776 171.051 12.6194 171.733 12.7688L171.888 12.8636L171.97 14.1908C171.489 14.5555 170.697 14.4242 170.09 14.4315H163.876L163.639 14.1908C163.598 13.6626 163.711 13.1339 163.965 12.6668L165.836 12.7105C166.162 12.025 165.918 9.5821 165.918 8.73619C165.204 8.8548 164.473 8.80989 163.78 8.60493C163.676 8.09381 163.701 7.56541 163.854 7.06625Z" fill="white"/>
<path d="M55.3251 6.88397C57.2188 7.01409 59.1188 7.03114 61.0146 6.93502C61.7571 6.88955 62.5024 6.93363 63.2341 7.06628C63.3963 7.53491 63.442 8.03509 63.3673 8.52475C62.879 8.83832 61.71 8.77269 61.1477 8.80185V12.6084C61.8284 12.6668 62.9308 12.6084 63.4413 13.0241L63.3747 14.1763C63.1519 14.3549 62.8698 14.4458 62.583 14.4315H57.086C56.545 14.4899 55.9992 14.4899 55.4583 14.4315C55.3917 14.4315 55.2289 14.2128 55.1698 14.1544C55.101 13.6221 55.2019 13.0818 55.4583 12.6084L57.123 12.6522C57.6482 12.0469 57.4115 9.73527 57.4115 8.82373C56.6442 8.89406 55.8708 8.7841 55.155 8.50287C55.0846 7.95752 55.1428 7.40352 55.3251 6.88397Z" fill="white"/>
<path d="M79.8585 6.88395C80.6575 6.97145 82.7587 6.65059 83.3358 6.97875C83.6317 7.14647 84.0313 8.02155 84.2458 8.36429L86.8131 12.3459C87.9894 10.552 88.9808 8.51743 90.3644 6.89124C91.5984 6.77202 92.8432 6.8211 94.0636 7.03709C93.9623 7.49779 93.7462 7.92637 93.4347 8.28407L89.077 14.4242C87.5177 14.5021 85.9545 14.4631 84.4012 14.3075L81.575 10.2092C81.0349 9.48001 79.6883 7.76632 79.8585 6.88395Z" fill="white"/>
<path d="M95.5811 6.94229H101.359C102.284 6.94229 106.642 6.73081 107.16 7.24127C107.288 7.74627 107.235 8.27926 107.012 8.75078C104.548 8.43721 101.833 8.75078 99.3395 8.82371L99.0583 9.15915L99.2951 9.57482C100.049 9.72768 100.821 9.77433 101.589 9.71337L105.162 9.83734L105.436 10.1582C105.391 10.7635 105.436 10.9895 105.022 11.4562L102.898 11.5292C102.062 11.5292 99.8278 11.4125 99.1989 11.8938L99.1471 12.2584C99.591 12.747 99.9905 12.6157 100.627 12.623H105.221C105.862 12.5153 106.521 12.586 107.123 12.8272C107.211 13.3741 107.441 13.9356 107.123 14.395L95.655 14.468L95.5811 6.94229Z" fill="white"/>
<path d="M113.33 6.67249C115.016 6.57769 118.508 6.5631 119.936 7.67883C120.154 7.83018 120.333 8.02835 120.462 8.25831C120.59 8.48826 120.663 8.74397 120.676 9.00603C119.441 10.2166 115.971 8.36431 114.373 8.45911C113.8 8.43778 113.239 8.62463 112.797 8.98415L112.893 9.25397C113.55 9.52263 114.254 9.66138 114.965 9.66234C116.552 9.71354 118.124 9.98858 119.633 10.4791C119.991 10.5881 120.319 10.7761 120.592 11.0289C120.865 11.2816 121.076 11.5924 121.209 11.9375C121.229 12.1639 121.204 12.392 121.134 12.6086C121.064 12.8252 120.951 13.0259 120.802 13.1991C119.87 14.344 117.243 14.4534 115.852 14.5992C113.834 14.7626 111.803 14.5321 109.874 13.9211C109.579 13.8158 109.311 13.6456 109.092 13.4232C108.872 13.2008 108.707 12.9322 108.609 12.6376C108.484 12.3459 108.543 12.3095 108.661 12.0251C109.65 11.748 110.698 11.748 111.687 12.0251C112.708 12.3459 113.492 12.8637 114.609 12.871C115.475 12.871 116.57 12.871 117.192 12.2511C116.681 11.4781 111.48 11.2812 110.2 10.7562C109.873 10.6338 109.579 10.4384 109.342 10.1854C109.104 9.93234 108.93 9.62851 108.831 9.29772C108.868 8.75655 109.058 8.23633 109.379 7.7955C110.622 7.20538 111.958 6.82574 113.33 6.67249Z" fill="white"/>
<path d="M145.431 9.77169V11.1718C144.603 12.2219 140.556 10.9749 139.343 11.9011V12.3021C140.652 13.3595 145.631 11.9521 147.296 12.8636C147.296 13.396 147.51 13.921 147.155 14.3221L135.621 14.4242V6.86205C138.47 7.01519 141.392 6.86205 144.248 6.86205C145.047 6.86205 146.637 6.66516 147.266 7.08812C147.303 7.6715 147.459 8.19655 147.118 8.69972H145.498H140.933C140.457 8.64372 139.974 8.69355 139.52 8.84557L139.35 8.95495V9.48L139.505 9.59668C139.927 9.72137 140.37 9.76106 140.807 9.71335L145.431 9.77169Z" fill="white"/>
<path d="M77.3503 6.88392C77.578 6.86594 77.8067 6.90351 78.0162 6.99331C78.2027 7.82341 78.2601 8.67664 78.1863 9.52374L78.1197 14.4388C76.9286 14.4388 75.1604 14.6648 74.0432 14.3075C73.6141 14.1762 72.9926 13.4543 72.6523 13.1407L69.1602 10.0342V14.4096L66.2008 14.4679C65.9384 14.4897 65.6766 14.42 65.4609 14.271V6.92768C66.5781 6.92768 68.2872 6.70891 69.3451 6.92768C69.7003 7.01518 70.3143 7.69337 70.5955 7.9486L74.3835 11.3395V7.03706C74.9828 6.73078 76.6253 6.89851 77.3503 6.88392Z" fill="white"/>
<path d="M29.6679 2.68357C29.1204 2.92422 26.9453 2.10747 26.1315 1.95434C23.5953 1.4556 20.9928 1.37428 18.4296 1.71369C16.7206 2.04184 14.9745 2.66898 13.3173 2.91692C12.5599 2.98755 11.7986 3.00704 11.0385 2.97526H7.81281L7.56866 3.2232C7.72679 3.69285 7.7674 4.19321 7.68703 4.68167C7.59825 4.90044 7.30231 5.0317 7.08776 5.11191C5.78562 5.62238 2.40451 6.62142 1.81263 7.94863V7.99967L1.62027 7.92675C1.55369 6.59955 4.4391 4.01806 5.4083 3.05548C4.43373 2.99222 3.46471 2.86309 2.50809 2.66898C3.70821 2.54898 4.90104 2.36642 6.08156 2.12206C7.90159 1.66994 9.61804 0.977164 11.4825 0.583378C13.8876 0.108823 16.3409 -0.0869677 18.7922 -7.60518e-06C20.271 0.026202 21.7434 0.199669 23.1869 0.517748C24.4742 0.816733 26.0945 1.53867 27.3892 1.48763L28.2178 0.357316L28.499 0.40107C28.6748 1.25116 29.0784 2.0393 29.6679 2.68357Z" fill="white"/>
<path d="M161.375 12.6376L159.747 11.2739C160.487 10.9604 161.353 10.676 161.76 9.97589C161.888 9.48345 161.819 8.96108 161.567 8.51742C159.777 6.78914 157.128 6.98604 154.812 6.97145L149.449 6.89124L149.315 14.4534L153.118 14.4096V11.9156C154.291 11.8112 155.473 11.8949 156.618 12.1636C157.106 12.6741 158.194 14.1325 158.756 14.3513C159.318 14.5701 161.064 14.4461 161.715 14.468L162.455 14.3221C162.324 13.6461 161.938 13.0442 161.375 12.6376ZM157.128 10.0634C155.873 10.2895 154.588 10.2895 153.333 10.0634C152.97 9.69878 153.059 9.54564 153.059 9.05706L153.533 8.68515C154.483 8.56846 155.445 8.56846 156.396 8.68515C156.668 8.67759 156.939 8.72333 157.193 8.81971C157.447 8.9161 157.679 9.06122 157.875 9.24666C157.713 9.76441 157.587 9.779 157.128 10.0634Z" fill="white"/>
<path d="M35.6529 11.6677C35.4782 11.4381 35.2559 11.2477 35.0008 11.1094C34.7456 10.9711 34.4635 10.888 34.1732 10.8655C32.7749 10.6687 31.0584 11.5948 29.8155 12.1636C29.2996 12.4901 28.7198 12.7063 28.1138 12.798C28.173 12.4115 28.3062 12.3605 28.6169 12.1417C29.7108 11.5011 30.8749 10.9849 32.0868 10.603C32.4663 10.396 32.8718 10.2391 33.2928 10.1363C33.3856 9.68048 33.4229 9.21533 33.4037 8.75077C32.7971 8.02154 32.3754 8.14551 31.5615 7.78089C30.9509 7.47329 30.3581 7.13246 29.7859 6.75997L33.4111 6.89852C33.7136 6.93146 34.0187 6.93146 34.3212 6.89852C34.5319 6.7746 34.728 6.62784 34.9056 6.46098C33.9142 6.13283 32.9894 5.65883 32.0054 5.32338C31.4603 5.23198 30.9286 5.07525 30.4222 4.85667L30.2816 4.74729C30.5171 4.59962 30.6886 4.37089 30.7625 4.10556L30.2076 3.45654L29.416 4.00347C29.0016 3.85762 28.7575 3.38362 28.4468 3.27423C25.2546 2.38384 21.8452 2.64234 18.8287 4.00347C18.1629 4.31704 17.6006 4.8275 16.9643 5.18482C16.1505 6.162 15.5364 6.96415 15.6696 8.31323C15.689 8.56663 15.7592 8.81373 15.876 9.04026C15.9928 9.2668 16.154 9.4683 16.3502 9.63314C16.7685 9.94451 17.2461 10.1696 17.7546 10.2949C18.2631 10.4202 18.7919 10.4431 19.3096 10.3624C20.4934 10.2384 21.6254 9.28311 22.6537 8.7216C23.3414 8.38868 24.0507 8.10122 24.7771 7.86111C23.8597 8.96954 22.2098 10.6322 22.3652 12.1636C22.4307 12.8337 22.7441 13.4567 23.2456 13.9137C23.3342 14.0059 23.4408 14.0793 23.5592 14.1295C23.6775 14.1796 23.8049 14.2055 23.9337 14.2054C25.6797 14.2492 27.374 13.9429 29.1126 14.3513C30.1778 14.6374 31.2094 15.0333 32.1904 15.5326C32.5307 15.7004 33.13 16.0941 33.4851 16.0577C33.8425 15.615 34.1548 15.1387 34.4173 14.6357C34.5205 14.2318 34.6746 13.8423 34.876 13.4762C34.9644 13.4424 35.0562 13.418 35.1498 13.4033L35.7935 13.9867L36.1264 13.8408C36.235 13.084 36.0671 12.3138 35.6529 11.6677ZM24.5552 6.13283C24.4825 6.17655 24.4057 6.21319 24.3258 6.24221C23.7043 6.43181 22.1654 5.95781 21.5884 5.65883C21.3072 5.52027 21.3072 5.48381 21.211 5.18482C21.8271 4.97458 22.4754 4.87096 23.1272 4.87855C23.3043 5.13436 23.4578 5.40525 23.586 5.688L23.8671 5.64424C23.8521 5.30983 23.8745 4.9748 23.9337 4.64519H24.0965C25.3912 4.37538 27.374 5.8703 28.4098 6.56307C26.9449 6.56307 26.131 5.60778 24.5552 6.14741V6.13283Z" fill="white"/>
<path d="M25.2802 21.3884L24.8141 23C21.7955 19.733 18.0889 18.8433 13.9013 17.9464C12.3146 17.6843 10.753 17.2915 9.2329 16.7723C8.15043 16.3538 7.13207 15.7894 6.20692 15.0951C5.59782 14.4888 4.90847 13.9663 4.15754 13.5418C5.56325 16.0723 7.45726 17.188 10.2243 17.9683C12.3994 18.5954 14.7596 18.9527 15.9507 21.104L16.5056 22.2343C15.4792 21.6594 14.4138 21.155 13.3169 20.7248C9.79518 19.4486 6.53985 18.8798 3.46948 16.4952C2.62736 15.9488 1.97033 15.1666 1.58286 14.2492C1.10196 12.6595 1.78262 12.3094 2.01197 10.9093C1.82567 10.9235 1.64409 10.974 1.47772 11.0579C1.31136 11.1418 1.16353 11.2573 1.04277 11.3979C0.66545 11.7406 0.384307 12.1271 -0.0078125 12.499C0.491356 10.8814 1.40035 9.41573 2.63345 8.2403C4.30117 6.89258 6.26015 5.93961 8.35987 5.45464L9.75079 6.9131C8.75939 7.4819 7.67921 8.18926 7.35368 9.36332C7.28003 9.60442 7.25584 9.85755 7.28251 10.108C7.30919 10.3584 7.3862 10.601 7.50905 10.8218C7.6445 11.0317 7.79534 11.2315 7.96036 11.4198H8.18971C7.92336 10.2749 7.80499 9.84462 8.46345 8.79452C8.64183 8.52154 8.89971 8.30803 9.2033 8.18197L9.53623 8.4372C9.39413 9.12739 9.41183 9.84029 9.58802 10.5228C10.0415 11.829 10.802 13.011 11.8076 13.9721C13.4324 15.3332 15.3127 16.3664 17.3416 17.013C16.2393 16.1598 14.7152 15.1024 13.9901 13.9356C13.5314 13.2064 13.2503 12.3532 12.7472 11.6604L12.4808 11.7406C12.4594 12.2375 12.5399 12.7336 12.7176 13.1991L12.3847 13.4689C11.5334 12.4058 10.9115 11.1824 10.5572 9.87379C10.5598 9.08094 10.6366 8.29002 10.7866 7.51107C11.364 6.34862 12.2259 5.34615 13.2947 4.59414C14.8399 3.64744 16.5433 2.97834 18.3256 2.61792C19.3581 2.42633 20.4048 2.31901 21.4552 2.29706C19.317 3.10651 17.3712 3.64614 15.5364 4.98793C14.4488 6.74538 14.0567 7.8611 14.5524 9.88837C15.0481 11.9156 17.1641 13.396 18.8731 14.4242C19.2249 14.622 19.6163 14.7414 20.0199 14.7742L20.3528 14.6138C20.1827 14.1398 19.7757 13.9575 19.317 13.7387C18.9445 13.5599 18.5985 13.3318 18.2886 13.0605C20.9743 13.7023 23.5342 14.4096 25.0583 16.8744C25.7167 17.9829 25.5835 20.1633 25.2802 21.3884Z" fill="white"/>
</svg>
